<?xml version="1.0" encoding="UTF-8" standalone="no"?>
<!DOCTYPE svg PUBLIC "-//W3C//DTD SVG 20010904//EN"
              "http://www.w3.org/TR/2001/REC-SVG-20010904/DTD/svg10.dtd">

<svg xmlns="http://www.w3.org/2000/svg"
     width="130mm" height="40mm"
     viewBox="0 0 1300 400">
  <path id="路径"
        fill="#27aad6" stroke="none" stroke-width="0"
        d="M 58.81,276.56
           C 66.24,275.40 73.66,274.18 81.08,272.92
             81.08,272.92 81.08,95.52 81.08,95.52
             81.08,95.52 62.03,95.52 62.03,95.52
             62.03,95.52 62.03,75.00 62.03,75.00
             62.03,75.00 188.59,75.00 188.59,75.00
             188.59,75.00 188.59,95.52 188.59,95.52
             188.59,95.52 166.62,95.52 166.62,95.52
             166.62,95.52 166.62,257.94 166.62,257.94
             175.51,256.29 184.39,254.65 193.28,253.00
             193.66,261.01 194.35,267.85 195.33,273.52
             186.05,275.36 176.49,277.25 166.62,279.19
             166.62,279.19 166.62,341.00 166.62,341.00
             166.62,341.00 145.23,341.00 145.23,341.00
             145.23,341.00 145.23,283.56 145.23,283.56
             120.14,288.61 93.19,294.09 64.38,300.00
             64.38,300.00 58.81,276.56 58.81,276.56 Z
           M 176.88,191.00
           C 176.88,191.00 244.55,191.00 244.55,191.00
             245.33,176.67 245.67,158.90 245.58,137.69
             245.58,137.69 185.08,137.69 185.08,137.69
             185.08,137.69 185.08,116.00 185.08,116.00
             185.08,116.00 264.19,116.00 264.19,116.00
             272.98,101.90 284.50,81.23 298.75,54.00
             298.75,54.00 321.61,64.84 321.61,64.84
             309.49,83.76 298.21,100.81 287.77,116.00
             287.77,116.00 336.84,116.00 336.84,116.00
             336.84,116.00 336.84,137.69 336.84,137.69
             336.84,137.69 268.28,137.69 268.28,137.69
             268.28,158.99 267.94,176.76 267.25,191.00
             267.25,191.00 346.80,191.00 346.80,191.00
             346.80,191.00 346.80,212.69 346.80,212.69
             346.80,212.69 270.19,212.69 270.19,212.69
             285.12,259.19 312.03,293.72 350.91,316.28
             343.88,323.23 337.62,330.47 332.16,338.00
             297.49,311.84 273.07,279.07 258.91,239.69
             248.16,281.44 224.44,315.21 187.72,341.00
             181.66,333.48 176.20,327.21 171.31,322.20
             212.03,296.60 235.86,260.09 242.80,212.69
             242.80,212.69 176.88,212.69 176.88,212.69
             176.88,212.69 176.88,191.00 176.88,191.00 Z
           M 145.23,261.88
           C 145.23,261.88 145.23,220.92 145.23,220.92
             145.23,220.92 102.47,220.92 102.47,220.92
             102.47,220.92 102.47,269.30 102.47,269.30
             116.82,266.87 131.08,264.40 145.23,261.88 Z
           M 102.47,201.00
           C 102.47,201.00 145.23,201.00 145.23,201.00
             145.23,201.00 145.23,157.92 145.23,157.92
             145.23,157.92 102.47,157.92 102.47,157.92
             102.47,157.92 102.47,201.00 102.47,201.00 Z
           M 102.47,138.00
           C 102.47,138.00 145.23,138.00 145.23,138.00
             145.23,138.00 145.23,95.52 145.23,95.52
             145.23,95.52 102.47,95.52 102.47,95.52
             102.47,95.52 102.47,138.00 102.47,138.00 Z
           M 196.22,66.02
           C 196.22,66.02 213.20,54.00 213.20,54.00
             224.92,67.34 235.96,81.95 246.31,97.83
             246.31,97.83 227.27,111.00 227.27,111.00
             219.07,97.48 208.72,82.48 196.22,66.02 Z
           M 553.34,71.00
           C 553.34,71.00 636.84,71.00 636.84,71.00
             636.84,71.00 636.84,307.27 636.84,307.27
             636.84,327.75 627.95,338.00 610.17,338.00
             599.83,338.00 590.45,337.90 582.05,337.70
             581.27,331.08 580.09,324.05 578.53,316.64
             589.47,317.60 597.97,318.08 604.03,318.08
             612.23,318.08 616.33,313.80 616.33,305.25
             616.33,305.25 616.33,238.17 616.33,238.17
             616.33,238.17 572.67,238.17 572.67,238.17
             568.77,282.41 556.27,317.69 535.17,344.00
             529.32,338.14 523.66,333.16 518.19,329.06
             531.66,310.51 540.94,292.06 546.02,273.70
             550.90,256.13 553.34,233.09 553.34,204.58
             553.34,204.58 553.34,71.00 553.34,71.00 Z
           M 415.94,270.00
           C 415.94,270.00 468.67,270.00 468.67,270.00
             468.67,270.00 468.67,241.16 468.67,241.16
             468.67,241.16 447.88,241.16 447.88,241.16
             447.88,241.16 447.88,246.75 447.88,246.75
             447.88,246.75 427.95,246.75 427.95,246.75
             427.95,246.75 427.95,132.00 427.95,132.00
             427.95,132.00 468.97,132.00 468.97,132.00
             468.97,132.00 468.97,105.16 468.97,105.16
             468.97,105.16 421.22,105.16 421.22,105.16
             421.22,105.16 421.22,87.00 421.22,87.00
             421.22,87.00 468.97,87.00 468.97,87.00
             468.97,87.00 468.97,54.00 468.97,54.00
             468.97,54.00 489.47,54.00 489.47,54.00
             489.47,54.00 489.47,87.00 489.47,87.00
             489.47,87.00 537.81,87.00 537.81,87.00
             537.81,87.00 537.81,105.16 537.81,105.16
             537.81,105.16 489.47,105.16 489.47,105.16
             489.47,105.16 489.47,132.00 489.47,132.00
             489.47,132.00 530.48,132.00 530.48,132.00
             530.48,132.00 530.48,246.75 530.48,246.75
             530.48,246.75 510.56,246.75 510.56,246.75
             510.56,246.75 510.56,241.16 510.56,241.16
             510.56,241.16 489.19,241.16 489.19,241.16
             489.19,241.16 489.19,270.00 489.19,270.00
             489.19,270.00 536.64,270.00 536.64,270.00
             536.64,270.00 536.64,288.16 536.64,288.16
             536.64,288.16 489.19,288.16 489.19,288.16
             489.19,288.16 489.19,341.66 489.19,341.66
             489.19,341.66 468.67,341.66 468.67,341.66
             468.67,341.66 468.67,288.16 468.67,288.16
             468.67,288.16 415.94,288.16 415.94,288.16
             415.94,288.16 415.94,270.00 415.94,270.00 Z
           M 390.45,216.95
           C 398.07,220.27 405.49,223.20 412.72,225.73
             405.49,257.73 397.68,296.18 389.28,341.06
             389.28,341.06 365.25,334.03 365.25,334.03
             373.66,300.27 382.05,261.25 390.45,216.95 Z
           M 573.56,220.00
           C 573.56,220.00 616.33,220.00 616.33,220.00
             616.33,220.00 616.33,163.16 616.33,163.16
             616.33,163.16 573.84,163.16 573.84,163.16
             573.84,193.12 573.75,212.06 573.56,220.00 Z
           M 616.33,90.05
           C 616.33,90.05 573.84,90.05 573.84,90.05
             573.84,90.05 573.84,145.00 573.84,145.00
             573.84,145.00 616.33,145.00 616.33,145.00
             616.33,145.00 616.33,90.05 616.33,90.05 Z
           M 447.88,223.00
           C 447.88,223.00 510.56,223.00 510.56,223.00
             510.56,223.00 510.56,194.58 510.56,194.58
             510.56,194.58 447.88,194.58 447.88,194.58
             447.88,194.58 447.88,223.00 447.88,223.00 Z
           M 510.56,150.17
           C 510.56,150.17 447.88,150.17 447.88,150.17
             447.88,150.17 447.88,177.00 447.88,177.00
             447.88,177.00 510.56,177.00 510.56,177.00
             510.56,177.00 510.56,150.17 510.56,150.17 Z
           M 373.45,133.17
           C 387.52,145.78 400.89,158.57 413.59,171.56
             406.36,178.34 400.50,183.77 396.02,187.84
             384.10,173.89 371.60,160.41 358.52,147.42
             358.52,147.42 373.45,133.17 373.45,133.17 Z
           M 381.66,58.69
           C 393.19,69.46 405.59,82.29 418.88,97.17
             412.43,102.86 406.37,108.05 400.70,112.75
             389.57,98.24 377.95,84.81 365.84,72.45
             365.84,72.45 381.66,58.69 381.66,58.69 Z
           M 658.52,262.09
           C 680.79,232.40 697.58,199.30 708.91,162.80
             708.91,162.80 662.62,162.80 662.62,162.80
             662.62,162.80 662.62,142.00 662.62,142.00
             662.62,142.00 710.67,142.00 710.67,142.00
             710.67,142.00 710.67,98.55 710.67,98.55
             695.63,100.12 681.47,101.50 668.19,102.69
             666.82,95.46 664.87,88.23 662.33,81.00
             700.22,78.24 737.82,73.91 775.12,68.00
             775.12,68.00 782.73,89.69 782.73,89.69
             765.16,92.05 748.46,94.12 732.64,95.89
             732.64,95.89 732.64,142.00 732.64,142.00
             732.64,142.00 779.22,142.00 779.22,142.00
             779.22,142.00 779.22,162.80 779.22,162.80
             779.22,162.80 732.64,162.80 732.64,162.80
             732.64,162.80 732.64,195.47 732.64,195.47
             732.64,195.47 745.53,183.75 745.53,183.75
             759.59,195.98 772.58,207.91 784.50,219.55
             784.50,219.55 768.09,236.00 768.09,236.00
             755.59,221.90 743.77,209.66 732.64,199.28
             732.64,199.28 732.64,343.00 732.64,343.00
             732.64,343.00 710.67,343.00 710.67,343.00
             710.67,343.00 710.67,210.70 710.67,210.70
             699.15,240.71 685.48,266.15 669.66,287.00
             666.33,278.99 662.62,270.69 658.52,262.09 Z
           M 764.28,246.91
           C 764.28,246.91 879.12,236.38 879.12,236.38
             879.12,236.38 879.12,56.00 879.12,56.00
             879.12,56.00 901.69,56.00 901.69,56.00
             901.69,56.00 901.69,234.33 901.69,234.33
             901.69,234.33 947.98,229.75 947.98,229.75
             947.98,229.75 949.73,250.84 949.73,250.84
             949.73,250.84 901.69,255.36 901.69,255.36
             901.69,255.36 901.69,343.00 901.69,343.00
             901.69,343.00 879.12,343.00 879.12,343.00
             879.12,343.00 879.12,257.41 879.12,257.41
             879.12,257.41 766.62,268.00 766.62,268.00
             766.62,268.00 764.28,246.91 764.28,246.91 Z
           M 799.14,101.41
           C 799.14,101.41 812.62,87.00 812.62,87.00
             834.30,103.34 851.88,117.67 865.36,129.97
             865.36,129.97 850.12,147.00 850.12,147.00
             836.26,132.96 819.27,117.76 799.14,101.41 Z
           M 781.86,170.69
           C 781.86,170.69 795.92,156.00 795.92,156.00
             818.19,173.71 834.99,187.84 846.31,198.38
             846.31,198.38 831.08,216.00 831.08,216.00
             821.90,206.26 805.49,191.16 781.86,170.69 Z
           M 1067.20,187.34
           C 1067.20,187.34 1067.20,168.00 1067.20,168.00
             1067.20,168.00 1142.50,168.00 1142.50,168.00
             1142.50,168.00 1142.50,123.39 1142.50,123.39
             1142.50,123.39 1066.03,123.39 1066.03,123.39
             1066.03,123.39 1066.03,102.00 1066.03,102.00
             1066.03,102.00 1142.50,102.00 1142.50,102.00
             1142.50,102.00 1142.50,55.00 1142.50,55.00
             1142.50,55.00 1165.94,55.00 1165.94,55.00
             1165.94,55.00 1165.94,102.00 1165.94,102.00
             1165.94,102.00 1245.62,102.00 1245.62,102.00
             1245.62,102.00 1245.62,123.39 1245.62,123.39
             1245.62,123.39 1165.94,123.39 1165.94,123.39
             1165.94,123.39 1165.94,168.00 1165.94,168.00
             1165.94,168.00 1228.34,168.00 1228.34,168.00
             1228.34,168.00 1228.34,185.59 1228.34,185.59
             1214.57,224.42 1194.99,255.87 1169.59,279.94
             1191.56,297.31 1218.76,310.56 1251.19,319.69
             1243.77,328.19 1237.52,335.62 1232.44,342.00
             1200.70,329.11 1173.80,313.45 1151.73,295.02
             1126.05,314.20 1096.02,330.53 1061.64,344.00
             1057.54,337.82 1052.36,330.97 1046.11,323.45
             1080.97,312.18 1110.76,297.61 1135.47,279.73
             1113.79,256.23 1097.53,225.43 1086.69,187.34
             1086.69,187.34 1067.20,187.34 1067.20,187.34 Z
           M 958.52,208.69
           C 973.27,204.52 987.52,200.40 1001.30,196.33
             1001.30,196.33 1001.30,133.22 1001.30,133.22
             1001.30,133.22 962.33,133.22 962.33,133.22
             962.33,133.22 962.33,113.00 962.33,113.00
             962.33,113.00 1001.30,113.00 1001.30,113.00
             1001.30,113.00 1001.30,57.00 1001.30,57.00
             1001.30,57.00 1023.84,57.00 1023.84,57.00
             1023.84,57.00 1023.84,113.00 1023.84,113.00
             1023.84,113.00 1058.12,113.00 1058.12,113.00
             1058.12,113.00 1058.12,133.22 1058.12,133.22
             1058.12,133.22 1023.84,133.22 1023.84,133.22
             1023.84,133.22 1023.84,189.30 1023.84,189.30
             1035.07,185.73 1046.01,182.22 1056.66,178.75
             1056.66,188.12 1056.85,195.75 1057.25,201.61
             1046.21,205.10 1035.07,208.64 1023.84,212.22
             1023.84,212.22 1023.84,306.77 1023.84,306.77
             1023.84,327.48 1014.08,337.94 994.55,338.14
             986.74,338.33 977.38,338.33 966.44,338.14
             965.26,329.94 963.99,321.64 962.62,313.25
             974.14,314.41 982.84,315.00 988.70,315.00
             997.10,315.00 1001.30,310.60 1001.30,301.81
             1001.30,301.81 1001.30,219.70 1001.30,219.70
             988.11,224.04 974.83,228.47 961.45,233.00
             961.45,233.00 958.52,208.69 958.52,208.69 Z
           M 1202.86,187.34
           C 1202.86,187.34 1109.25,187.34 1109.25,187.34
             1118.04,218.02 1132.69,243.94 1153.19,265.09
             1176.24,243.36 1192.80,217.44 1202.86,187.34 Z" />
</svg>
